<svg data-v-0dd9719b="" version="1.0" xmlns="http://www.w3.org/2000/svg" xmlns:xlink="http://www.w3.org/1999/xlink" width="100%" height="100%" viewBox="0 0 340.000000 250.000000" preserveAspectRatio="xMidYMid meet" color-interpolation-filters="sRGB" style="margin: auto;"> <rect data-v-0dd9719b="" x="0" y="0" width="100%" height="100%" fill="#ffffff" fill-opacity="1" class="background"></rect> <rect data-v-0dd9719b="" x="0" y="0" width="100%" height="100%" fill="url(#watermark)" fill-opacity="1" class="watermarklayer"></rect> <g data-v-0dd9719b="" fill="#333" class="icon-text-wrapper icon-svg-group iconsvg" transform="translate(65.62799835212621,103.93583869934082)"><g class="iconsvg-imagesvg" transform="translate(0,0)"><g><rect fill="#333" fill-opacity="0" stroke-width="2" x="0" y="0" width="60" height="42.12832287146649" class="image-rect"></rect> <svg x="0" y="0" width="60" height="42.12832287146649" filtersec="colorsb685723435" class="image-svg-svg primary" style="overflow: visible;"><svg xmlns="http://www.w3.org/2000/svg" viewBox="-0.0019837021827697754 0.015816323459148407 185.19198608398438 130.0301055908203"><path d="M127.48 46.51A63.78 63.78 0 0 0 93.85 6.85 67.63 67.63 0 0 0 69.1.12a64.81 64.81 0 0 0-25.27 3.6A64.1 64.1 0 0 0 .22 63.34C-.2 84.77.13 106.2 0 127.64c0 1.91.48 2.4 2.4 2.39 20-.08 40-.14 60 0A69.63 69.63 0 0 0 96 122.2c.33-.33 1-.34 1.07-.91a4.56 4.56 0 0 0 1.79-.75 55.39 55.39 0 0 0 11.48-8.76A64.9 64.9 0 0 0 129 77.24a64.17 64.17 0 0 0-1.52-30.73z" fill="#0f54ff"></path><circle cx="121.45" cy="65.01" r="63.74" fill="#1eaaff" opacity=".4"></circle></svg></svg> <!----></g></g> <g transform="translate(61,1.3121089935302734)"><g data-gra="path-name" fill-rule="" class="tp-name iconsvg-namesvg" transform="translate(0,0)"><g transform="scale(0.7599999999999998)"><g><path d="M19.66 0L3.06 0 3.06-30.02 20.02-30.02Q24.03-30.02 25.83-29.07L25.83-29.07Q27.95-28.04 29.02-25.61L29.02-25.61Q29.79-23.94 29.79-22.14L29.79-22.14Q29.79-19.8 28.55-17.77 27.31-15.75 25.43-14.98L25.43-14.98Q29.79-13 29.79-7.92L29.79-7.92Q29.79-5 28.39-3.01L28.39-3.01Q27.18-1.3 25.29-0.65 23.4 0 19.66 0L19.66 0ZM9.45-24.66L9.45-17.68 18.13-17.68Q19.53-17.68 20.14-17.82 20.75-17.95 21.33-18.4L21.33-18.4Q22.72-19.48 22.72-21.38L22.72-21.38Q22.72-23.18 21.42-24.03L21.42-24.03Q20.47-24.66 18.27-24.66L18.27-24.66 9.45-24.66ZM9.45-12.33L9.45-5.35 18.13-5.35Q19.53-5.35 20.16-5.49 20.79-5.63 21.33-6.08L21.33-6.08Q22.72-7.15 22.72-9.04L22.72-9.04Q22.72-10.84 21.42-11.7L21.42-11.7Q20.47-12.33 18.27-12.33L18.27-12.33 9.45-12.33ZM40.86 0L34.47 0 34.47-30.02 40.86-30.02 40.86 0ZM60.12-30.2L60.12-30.2Q64.62-30.2 68.04-28.66L68.04-28.66Q72.05-26.82 73.66-22.5L73.66-22.5Q74.92-19.13 74.92-14.58L74.92-14.58Q74.92-9.99 73.39-6.61L73.39-6.61Q71.46-2.61 67.45-0.99L67.45-0.99Q64.48 0.18 60.61 0.18L60.61 0.18Q55.53 0.18 51.8-1.71L51.8-1.71Q48.64-3.28 46.98-6.66 45.31-10.04 45.31-14.85L45.31-14.85Q45.31-23.45 49.59-27.09L49.59-27.09Q53.19-30.15 60.12-30.2ZM60.16-25.15L60.16-25.15Q55.75-25.15 53.87-22.27L53.87-22.27Q52.34-20.02 52.34-15.03L52.34-15.03Q52.34-9.76 54.23-7.29L54.23-7.29Q56.12-4.86 60.21-4.86L60.21-4.86Q64.17-4.86 66.04-7.33 67.91-9.81 67.91-14.98L67.91-14.98Q67.91-19.71 66.38-22.18L66.38-22.18Q64.62-25.11 60.16-25.15ZM92.61-30.2L92.61-30.2Q97.11-30.2 100.53-28.66L100.53-28.66Q104.54-26.82 106.16-22.5L106.16-22.5Q107.42-19.13 107.42-14.58L107.42-14.58Q107.42-9.99 105.89-6.61L105.89-6.61Q103.95-2.61 99.95-0.99L99.95-0.99Q96.98 0.18 93.11 0.18L93.11 0.18Q88.02 0.18 84.29-1.71L84.29-1.71Q81.14-3.28 79.47-6.66 77.81-10.04 77.81-14.85L77.81-14.85Q77.81-23.45 82.08-27.09L82.08-27.09Q85.68-30.15 92.61-30.2ZM92.66-25.15L92.66-25.15Q88.25-25.15 86.36-22.27L86.36-22.27Q84.83-20.02 84.83-15.03L84.83-15.03Q84.83-9.76 86.72-7.29L86.72-7.29Q88.61-4.86 92.7-4.86L92.7-4.86Q96.66-4.86 98.53-7.33 100.4-9.81 100.4-14.98L100.4-14.98Q100.4-19.71 98.87-22.18L98.87-22.18Q97.11-25.11 92.66-25.15ZM125.55-5.35L134.73-5.35 134.73 0 124.25 0Q121.28 0 119.7-0.32L119.7-0.32Q114.17-1.4 111.83-6.48L111.83-6.48Q110.3-9.9 110.3-14.94L110.3-14.94Q110.3-20.97 112.64-24.75L112.64-24.75Q114.35-27.49 117.2-28.75 120.06-30.02 124.56-30.02L124.56-30.02 134.73-30.02 134.73-24.66 125.28-24.66Q121.01-24.66 119.03-22.36L119.03-22.36Q117.36-20.47 117.36-15.52L117.36-15.52Q117.36-8.87 119.93-6.79L119.93-6.79Q121.73-5.35 125.55-5.35L125.55-5.35ZM138.83-30.02L145.17-30.02 145.17-12.01Q145.17-9.86 145.53-8.66 145.89-7.47 146.75-6.61L146.75-6.61Q148.64-4.77 152.01-4.77L152.01-4.77Q154.17-4.77 155.77-5.51 157.37-6.25 158-7.51L158-7.51Q158.63-8.78 158.63-12.01L158.63-12.01 158.63-30.02 165.02-30.02 165.02-12.33Q165.02-8.82 164.27-6.55 163.53-4.27 162-2.88L162-2.88Q158.45 0.22 151.92 0.22L151.92 0.22Q144.95 0.22 141.75-2.83L141.75-2.83Q140.09-4.41 139.46-6.37 138.83-8.32 138.83-11.88L138.83-11.88 138.83-30.02ZM185.76 0L170.69 0 170.69-5.35 184.41-5.35Q187.7-5.35 188.78-5.98L188.78-5.98Q190.35-6.93 190.35-8.82L190.35-8.82Q190.35-11.03 188.51-12.01L188.51-12.01Q187.47-12.6 185.18-12.6L185.18-12.6 179.6-12.6Q174.51-12.6 172.26-14.45L172.26-14.45Q170.87-15.62 170.08-17.37 169.29-19.13 169.29-21.15L169.29-21.15Q169.29-24.3 171.14-26.91L171.14-26.91Q172.94-29.43 176.9-29.88L176.9-29.88Q178.25-30.02 180.9-30.02L180.9-30.02 195.8-30.02 195.8-24.66 182.34-24.66Q179.33-24.61 178.34-24.39L178.34-24.39Q176.31-23.89 176.31-21.33L176.31-21.33Q176.31-19.17 178.02-18.45L178.02-18.45Q179.15-17.91 181.8-17.91L181.8-17.91 186.62-17.91Q190.31-17.91 192.11-17.28L192.11-17.28Q195.3-16.2 196.52-13.5L196.52-13.5Q197.46-11.34 197.46-8.87L197.46-8.87Q197.46-6.12 196.2-3.96L196.2-3.96Q194.45-0.9 190.94-0.27L190.94-0.27Q189.23 0 185.76 0L185.76 0Z" transform="translate(-3.059999942779541, 30.200000762939453)"></path></g> <!----> <!----> <!----> <!----> <!----> <!----> <!----></g></g> <g data-gra="path-slogan" fill-rule="" class="tp-slogan iconsvg-slogansvg" fill="#333" transform="translate(42.887447357177734,28.11920166015625)"><!----> <!----> <g transform="scale(1, 1)"><g transform="scale(1.1600000000000001)"><path d="M7.17-6.09L7.17-6.09L6.09-6.09Q6-7.73 3.94-7.83L3.94-7.83Q2.02-7.78 2.02-6.33L2.02-6.33Q2.02-5.39 3.05-5.25L3.05-5.25L5.48-4.69Q7.41-4.22 7.41-2.34L7.41-2.34Q7.36 0.05 4.03 0.14L4.03 0.14Q2.20 0.14 1.45-0.61L1.45-0.61Q0.52-1.31 0.56-2.77L0.56-2.77L1.69-2.77Q1.73-0.80 4.03-0.75L4.03-0.75Q6.28-0.80 6.33-2.20L6.33-2.20Q6.52-3.38 4.45-3.75L4.45-3.75L2.67-4.13Q0.84-4.64 0.84-6.19L0.84-6.19Q0.98-8.72 3.84-8.81L3.84-8.81Q7.08-8.81 7.17-6.09ZM9.86-8.58L11.03-8.58L11.03-1.03L15.39-1.03L15.39 0L9.86 0L9.86-8.58ZM24.31-4.27L24.31-4.27Q24.13-7.64 21.31-7.83L21.31-7.83Q18.45-7.69 18.31-4.27L18.31-4.27Q18.45-0.94 21.31-0.80L21.31-0.80Q24.13-0.98 24.31-4.27ZM25.48-4.27L25.48-4.27Q25.20 0 21.31 0.14L21.31 0.14Q17.38 0 17.09-4.27L17.09-4.27Q17.33-8.72 21.31-8.81L21.31-8.81Q25.20-8.67 25.48-4.27ZM34.27-3.61L31.64-3.61L31.64-4.59L35.39-4.59L35.39 0L34.64 0L34.36-1.08Q33.38 0.09 31.55 0.14L31.55 0.14Q29.81 0.14 28.88-0.75L28.88-0.75Q27.47-2.06 27.52-4.36L27.52-4.36Q27.84-8.63 31.59-8.81L31.59-8.81Q34.78-8.63 35.25-6L35.25-6L34.13-6Q33.66-7.78 31.55-7.83L31.55-7.83Q28.88-7.64 28.73-4.31L28.73-4.31Q28.73-0.75 31.59-0.75L31.59-0.75Q32.63-0.75 33.38-1.31L33.38-1.31Q34.31-2.06 34.27-3.61L34.27-3.61ZM43.84 0L43-2.48L39.53-2.48L38.64 0L37.47 0L40.70-8.58L42.02-8.58L45.11 0L43.84 0ZM41.27-7.31L39.91-3.52L42.58-3.52L41.31-7.31L41.27-7.31ZM48.55-8.58L52.86-1.64L52.86-8.58L53.98-8.58L53.98 0L52.67 0L48.31-6.94L48.27-6.94L48.27 0L47.14 0L47.14-8.58L48.55-8.58Z" transform="translate(-0.5602678571428572, 8.8125)"></path></g></g></g></g></g><defs v-gra="od"></defs></svg>